[img]http://img524.imageshack.us/img524/8452/rihannaonlygirl2.png[/img]

[img]http://img176.imageshack.us/img176/7183/rihannaonlygirl.png[/img]

[code]General
Complete name                    : Rihanna - Only Girl {In The World} [KingPinVideos].mpg
Format                           : MPEG-PS
File size                        : 86.6 MiB
Duration                         : 4mn 14s
Overall bit rate                 : 2 856 Kbps
Writing library                  : encoded by TMPGEnc 4.0 XPress Version. 4.7.4.299

Video
ID                               : 224 (0xE0)
Format                           : MPEG Video
Format version                   : Version 1
Format settings, BVOP            : Yes
Format settings, Matrix          : Default
Duration                         : 4mn 14s
Bit rate mode                    : Constant
Bit rate                         : 2 615 Kbps
Nominal bit rate                 : 2 700 Kbps
Width                            : 384 pixels
Height                           : 208 pixels
Display aspect ratio             : 16:9
Frame rate                       : 29.970 fps
Resolution                       : 8 bits
Scan type                        : Progressive
Bits/(Pixel*Frame)               : 1.092
Stream size                      : 79.3 MiB (92%)
Writing library                  : TMPGEnc XPress 4.7.4.299

Audio
ID                               : 192 (0xC0)
Format                           : MPEG Audio
Format version                   : Version 1
Format profile                   : Layer 2
Duration                         : 4mn 14s
Bit rate mode                    : Constant
Bit rate                         : 128 Kbps
Channel(s)                       : 2 channels
Sampling rate                    : 48.0 KHz
Stream size                      : 3.88 MiB (4%)[/code]